<svg width="800" height="600" xmlns="http://www.w3.org/2000/svg">

 <g>
  <title>Layer 1</title>
  <path d="m40,130c1,9 9.70674,33.12604 21,59c8.7733,20.10048 17.52539,38.78441 21,48c5.91389,15.68521 12.82716,33.08878 17,41c4.80331,9.10651 11.14858,21.94583 14,30c1.05536,2.98099 0.58578,4.58578 2,6c0.70711,0.70709 2.29674,0.25806 4,-2c6.19998,-8.21951 10.29289,-13.29291 11,-14c0.70711,-0.70709 4.5856,-5.72464 10,-18c5.62102,-12.74377 13.32083,-30.92656 15,-39c1.23863,-5.95532 1.41144,-12.49078 8,-31c4.05203,-11.38336 6.42043,-14.08582 7,-16c1.04483,-3.45085 2.59135,-7.18228 9,-21c3.76329,-8.11404 8.88596,-13.27742 12,-18c8.89345,-13.48727 11.19409,-29.88856 14,-35c2.15204,-3.9203 2.51945,-9.03873 3,-12c0.50655,-3.12144 2,-3 1,-3c-2,0 -6,1 -8,1c-4,0 -10.95378,-0.26814 -16,-1c-10.931,-1.58534 -19,-2 -24,-2c-5,0 -9.30449,-1.53073 -13,0c-1.30656,0.5412 -2.29289,0.29289 -3,1c-0.70711,0.70711 -0.38737,1.72536 -1,3c-3.92268,8.16165 -3,25 -3,34c0,12 2,19 2,22c0,3 -0.43268,7.05414 -1,10c-1.01837,5.28799 -2.36079,9.21512 -5,16c-1.62125,4.16792 -3,9 -4,13c-1,4 -2.49829,9.93796 -3,16c-0.16496,1.99318 0,3 0,6c0,3 0.49345,5.87856 1,9c0.16019,0.98709 1,5 1,9c0,4 0,5 0,4c0,-1 -4.98692,-3.75711 -6,-10c-0.48055,-2.96126 3.14386,-11.32095 0,-25c-3.61868,-15.74501 -9.84723,-25.04132 -11,-29c-1.76826,-6.07233 -6.28859,-11.86829 -8,-16c-1.21015,-2.92157 -2.6863,-7.75211 -6,-18c-5.07421,-15.69243 -8.74107,-29.72695 -11,-37c-1.51244,-4.86955 -3.25195,-9.88051 -6,-16c-2.20606,-4.91256 -1.61732,-5.92388 -2,-5c-0.5412,1.30656 -1.72962,1.22885 -6,6c-2.82951,3.16131 -5.15224,4.23463 -7,5c-2.61313,1.08239 -6.34619,5.70546 -8,8c-1.30745,1.814 -3,6 -5,11c-2,5 -5.36702,12.65813 -10,18c-3.27601,3.77727 -7,9 -9,10l-1,0l-1,0" id="svg_10" stroke="#000" fill="#FFB27C"/>
  <path d="m235,139c0,-1 1,-1 1,6c0,17 5,39 11,59c6,20 8.84796,32.0797 11,36c2.80591,5.11145 6.70709,9.29289 6,10c-0.70709,0.70711 -4,3 -6,7c-2,4 -3.88133,8.02521 -5,13c-1.80911,8.04532 -5.49345,15.87857 -6,19c-0.32036,1.97418 1,5 2,6c1,1 6.03606,1.39139 19,0c29.10739,-3.12405 49.07486,-4.24203 63,-6c22.1846,-2.80069 32,-5 36,-5c1,0 3.29291,0.70709 4,0c0.70709,-0.70709 -1.29291,-0.29291 -2,-1c-0.70709,-0.70709 -6.66742,-7.4213 -8,-20c-0.95398,-9.00499 5.9725,-16.64749 7,-21c0.22977,-0.97325 -2,-2 -3,-2c-1,0 -3.14682,-0.13675 -5,2c-3.276,3.77727 -4.75711,3.01308 -11,2c-2.96127,-0.48055 -7,0 -11,0c-7,0 -15,0 -20,0c-4,0 -7.00751,-0.12218 -8,0c-4.09222,0.50377 -8,1 -12,1c-4,0 -8,0 -10,0c-1,0 -0.51373,-0.82375 0,-3c0.91901,-3.89299 -3,-17 -3,-22c0,-2 -0.70709,-2.70711 0,-2c0.70709,0.70711 7,0 12,0c6,0 14.03058,0.24481 23,-1c6.02502,-0.83618 9.58578,0.41422 11,-1c0.70709,-0.70711 -1.61105,-1.92807 -4,-4c-1.68924,-1.46507 -1,-3 -1,-5c0,-5 1.38269,-7.07613 1,-8c-0.5412,-1.30656 -2,-1 -3,-1c-1,0 -5,0 -9,0c-6,0 -12,0 -16,0c-3,0 -6,0 -10,0c-5,0 -8,0 -10,0c-3,0 -7.43277,-0.28325 -6,-2c3.20374,-3.83876 6.37134,-5.74675 9,-10c2.35114,-3.80423 2,-7 3,-7c1,0 5.7774,3.81203 19,7c16.7818,4.04611 32.91931,4.93231 45,-2c5.55371,-3.1869 8.93796,-5.49829 15,-6c5.97955,-0.49489 8,0 8,-1c0,-1 -1.64838,-1.42654 -6,-7c-3.58844,-4.59599 -3.70853,-15.399 -8,-27c-2.32739,-6.29152 -8.70923,-11.63992 -12,-19c-1.29074,-2.88686 -0.61731,-4.07612 -1,-5c-0.5412,-1.30656 -3,-1 -7,-1c-4,0 -10.07022,0.66364 -30,5c-17.06497,3.71304 -24,6 -28,7c-4,1 -10.09116,2.79568 -17,6c-2.0285,0.94083 -4.0535,0.5405 -6,1c-2.17625,0.51375 -4.90779,2.49623 -9,3c-0.99251,0.12218 -3.02997,-0.48874 -7,0c-4.09221,0.50377 -6,1 -9,1c-2,0 -3,0 -3,1l-1,1l-1,1" id="svg_11" stroke="#000" fill="#306856"/>
  <path stroke="#000" d="m415,108.99999c-2.68506,4.20571 -8.94866,19.88472 -9.8452,37.85143c-0.83804,16.79403 1.2389,42.2281 -1.79004,66.24c-2.54742,20.19452 -5.84275,27.26185 -5.37011,32.59429c0.7059,7.96439 5.21298,9.56579 6.26513,11.56571c0.47053,0.89439 0.99873,3.11626 1.79004,6.30857c1.03175,4.16227 1.02724,5.19765 2.68506,10.51429c1.94701,6.24408 4.02174,12.48947 4.47509,15.77143c0.14337,1.03786 0,3.15429 0.89502,3.15429l0,-3.15429" id="svg_12" fill="none"/>
  <path d="m416,115c1,1 2.33328,1.86565 3,4c2.10837,6.74943 4,14 9,19c1,1 4.41092,7.69238 9,11c1.814,1.30745 2.61731,2.07613 3,3c1.0824,2.61313 3.9176,2.38687 5,5c0.38269,0.92387 1.14935,2.47427 2,3c3.80423,2.35114 3.98691,7.75711 5,14c0.96109,5.92253 2.11835,12.94298 4,17c3.20432,6.90886 4.9725,11.64749 6,16c0.91901,3.89299 0.9725,6.64749 2,11c1.37851,5.83949 -0.29562,10.0146 0,13c0.50244,5.0742 1.00751,9.12218 2,9c4.09222,-0.50377 7.38904,-1.65593 10,-5c7.17688,-9.19197 18.32291,-27.81413 28,-45c7.24432,-12.86545 10,-24 10,-39c0,-6 -0.91754,-9.05664 -3,-12c-2.88785,-4.0817 -5.41589,-7.76108 -7,-11c-1.38934,-2.84072 -3.48627,-7.82375 -4,-10c-0.22977,-0.97325 0,-4 0,-6c0,-3 -0.4595,-5.0535 0,-7c1.0275,-4.3525 4.29291,-8.29289 5,-9c0.70709,-0.70711 3.16119,0.74639 8,4c4.14923,2.78995 8.78442,6.52539 18,10c15.68524,5.91389 24,7.58578 24,9c0,1.41422 -10.48865,23.72336 -12,36c-1.95496,15.88013 4.49951,34.96599 5,46c0.49847,10.98869 -4.73401,27.06886 -9,43c-1.88312,7.03235 -2,10 -3,12c-1,2 -2.36169,6.30539 -5,11c-2.44965,4.35883 -6.00806,9.99078 -14,17c-2.71069,2.37741 -2.81268,3.20682 -5,5c-2.78833,2.28589 -4,3 -5,3c-1,0 -9,1 -14,1c-5,0 -8.94583,-1.14859 -17,-4c-2.98099,-1.05536 -4,-3 -6,-7c-2,-4 -4,-8 -5,-15c-1,-7 -1.39099,-11.76952 -5,-14c-2.69,-1.66251 -3.07611,-1.61731 -4,-2c-3.91968,-1.62358 -5,-3 -6,-4c-4,-4 -7,-8 -10,-11c-4,-4 -7.61066,-7.15927 -9,-10c-1.58411,-3.23892 -5.38055,-6.76305 -9,-13c-1.12234,-1.93399 -1.38269,-2.92387 -1,-2c1.6236,3.91969 5.29291,4.29289 6,5c1.41422,1.41422 -1.83801,8.214 0,16c1.0275,4.35251 3.1731,6.85274 4,8c1.30746,1.814 3,7 5,11c2,4 1.36166,9.30539 4,14c2.44962,4.35883 4,8 4,9c0,1 1,2 1,3c0,2 -1.9176,2.38687 -3,5c-0.38269,0.92389 -1,1 -2,1c-1,0 -3,-1 -6,-1c-1,0 -3,0 -5,0c-3,0 -6.15225,0.23462 -8,1c-1.30655,0.5412 -4,1 -7,1c-3,0 -4,0 -5,0c-1,0 -2,0 -3,0l-1,0l-1,0l-1,0" id="svg_13" stroke="#000" fill="#805064"/>
  <path d="m580,100c0,1 -1.05133,2.15395 -2,5c-1.58112,4.74342 -6,11 -10,23c-4,12 -5,19 -5,24c0,4 0,6 0,7c0,1 -1.41418,2.58578 0,4c0.70709,0.70711 2.89325,-1.11958 4,-2c7.38281,-5.87314 22.7002,-10.924 43,-17c3.94995,-1.18228 5,-1 7,-1c2,0 2.97717,1.06989 9,3c12.95264,4.15086 18,7 18,6c0,-1 -2.34619,-0.29454 -4,2c-7.84473,10.88396 -10.76141,23.14183 -15,30c-3.79108,6.13412 -8.45563,19.19257 -14,34c-4.55853,12.17456 -7.11584,18.96384 -8,22c-1.15277,3.95868 -3.67261,7.70848 -6,14c-1.43048,3.867 -0.88977,7.05704 -3,11c-3.80426,7.10828 -6.88135,14.02521 -8,19c-0.90454,4.02264 -6.849,12.43463 -5,15c0.58472,0.81125 4.00684,0.16495 6,0c6.06201,-0.50171 10.8139,-4.49487 29,-6c8.96936,-0.74231 11,0 12,0c1,0 2.07611,0.38269 3,0c1.30658,-0.5412 3.93164,-3.07339 5,-4c3.77728,-3.276 11.28418,-8.73114 16,-14c4.27039,-4.77115 7.8009,-9.06458 7,-14c-0.50653,-3.12143 -1,-7 -1,-10c0,-4 0.3891,-8.03746 1,-13c0.50378,-4.09221 3.70892,-7.50739 7,-13c3.91437,-6.53284 4.58582,-11.58578 6,-13c0.70709,-0.70711 1.19031,-0.88152 3,-4c2.24469,-3.868 4.49622,-7.90779 5,-12c0.48871,-3.97003 0,-5 0,-7c0,-3 -5.41888,-6.25658 -7,-11c-0.63245,-1.89737 -0.61731,-4.07613 -1,-5c-2.16479,-5.22626 -5,-5 -5,-6c0,-1 3.83521,-2.77374 6,-8c0.38269,-0.92387 0.87769,-1.06601 2,-3c1.80969,-3.11848 3.01294,-3.16019 4,-3c18.72864,3.03925 33.86481,9.99594 45,11c4.9798,0.44902 9,1 13,1c1,0 0.71411,-1.21167 3,-4c5.37958,-6.56203 21.56287,-23.63034 26,-31c2.30676,-3.8313 2.52576,-5.14935 2,-6c-1.1756,-1.90211 -5.29291,-1.29289 -6,-2c-0.70709,-0.70711 0,-2 -1,-3c-2,-2 -4,-3 -6,-4c-4,-2 -9,-3 -16,-3c-3,0 -16.98352,-2.21771 -42,-4c-15.99066,-1.13925 -23,-2 -27,-2c-11,0 -26,-1 -34,-1c-4,0 -7,0 -11,0c-4,0 -7,0 -10,0c-4,0 -10,0 -15,0c-6,0 -9,0 -10,0c-1,0 -4,0 -7,0c-1,0 -2,0 -4,0c-3,0 -5.02582,0.32037 -7,0c-3.12146,-0.50654 -6,-1 -9,-2l-2,0l0,1" id="svg_14" stroke="#000" fill="#B8874D"/>
 </g>
</svg>